# xmcd
#
# Track frame offsets: 
#        150
#        14400
#        33592
#        47255
#        62999
#        79717
#        98305
#        113704
#        128950
#        145603
#        160138
#        179277
#        192114
#        206577
#        222033
#
# Disc length: 3196 seconds
#
# Revision: 6
# Processed by: cddbd v1.5.2PL0 Copyright (c) Steve Scherf et al.
# Submitted via: ExactAudioCopy v0.99pb5
#
DISCID=c00c7a0f
DTITLE=Various Artist - Classic Country - TL 626-26 - 1986 - 1988 - CD 1
DYEAR=2001
DGENRE=Country
TTITLE0=George Strait - Ocean front property
TTITLE1=Judds - Grandpa (tell me 'bout the good old days)
TTITLE2=Restless Heart - Why does it have to be (wrong or right)
TTITLE3=Don Williams - Then it's love
TTITLE4=Waylon Jennings - Rose in paradise
TTITLE5=K.T. Oslin - Do ya'
TTITLE6=Lee Greenwood - I don't mind the thorns (if you're the rose)
TTITLE7=Nitty Gritty Dirt Band - Fishing in the dark
TTITLE8=Ronnie Milsap - Happy, happy birthday baby
TTITLE9=Tanya Tucker - Just another love
TTITLE10=Keith Whitley - Don't close your eyes
TTITLE11=O'Kanes - Can't stop my heart from loving you
TTITLE12=Graham T. Brown - Hell and high water
TTITLE13=Merle Haggard - Twinkle, twinkle lucky star
TTITLE14=Ricky Skaggs - Cajun moon
EXTD=
EXTT0=
EXTT1=
EXTT2=
EXTT3=
EXTT4=
EXTT5=
EXTT6=
EXTT7=
EXTT8=
EXTT9=
EXTT10=
EXTT11=
EXTT12=
EXTT13=
EXTT14=
PLAYORDER=
